<svg xmlns="http://www.w3.org/2000/svg" data-name="Layer 1" viewBox="0 0 32 32" width="288" height="288"><path fill="#e0e0e2" d="M16.481,31.451A10.94,10.94,0,0,1,11.2,30.365C4.5,27.333-.891,20.586.82,12.806A16.038,16.038,0,0,1,9.134,2.147,16.26,16.26,0,0,1,26.463,4.1c2.852,2.362,5.188,5.942,5.029,9.8a8.924,8.924,0,0,1-7.065,8.318c-1.875.311-6.162-.612-6.763,2-.421,1.832,1.458,3.311,1.111,5.127A2.475,2.475,0,0,1,16.481,31.451Z" class="colore0e0e2 svgShape"></path><circle cx="26" cy="13" r="2.5" fill="#ed4569" class="colored4569 svgShape"></circle><circle cx="20" cy="6" r="2.5" fill="#55bb8c" class="color55bb8c svgShape"></circle><circle cx="11" cy="7" r="2.5" fill="#497fbd" class="color497fbd svgShape"></circle><circle cx="6" cy="14" r="2.5" fill="#fddd56" class="colorfddd56 svgShape"></circle><path fill="#bc9a7e" d="M10.23,24.23C9.6,25,8.87,25.8,8.06,26.61,4.75,29.92,1.45,32,.7,31.24s1.32-4.04,4.63-7.36c.81-.8,1.61-1.53,2.38-2.17,2.39-1.98,4.41-3.03,4.99-2.46S12.22,21.84,10.23,24.23Z" class="colorbc9a7e svgShape"></path><path fill="#afaeb3" d="M10.23,24.23l-.02.01a3.492,3.492,0,0,1-2.5-2.51v-.02c2.39-1.98,4.41-3.03,4.99-2.46S12.22,21.84,10.23,24.23Z" class="colorafaeb3 svgShape"></path><path fill="#f8a839" d="M19.454,13.755a8.941,8.941,0,0,0-4.391.28A5.559,5.559,0,0,0,11.3,18.944a1.5,1.5,0,0,0,.411,1.092,1.942,1.942,0,0,0,1.072.391,4.9,4.9,0,0,0,.844.06,3.458,3.458,0,0,0,3.5-3.076,16.052,16.052,0,0,1,.117-1.859C17.462,14.611,18.4,13.543,19.454,13.755Z" class="colorf8a839 svgShape"></path><path d="M26,10a3,3,0,1,0,3,3A3,3,0,0,0,26,10Zm0,5a2,2,0,1,1,2-2A2,2,0,0,1,26,15Zm.779-11.285A16.854,16.854,0,0,0,8.9,1.7a16.622,16.622,0,0,0-8.573,11A14.462,14.462,0,0,0,3.513,25.086C1.406,27.462-.742,30.505.344,31.591a1.093,1.093,0,0,0,.806.306h0c1.294,0,3.619-1.608,5.759-3.517a20.642,20.642,0,0,0,4.081,2.446A13.18,13.18,0,0,0,15.761,32a5.609,5.609,0,0,0,.79-.053,2.964,2.964,0,0,0,2.721-2.5,4.614,4.614,0,0,0-.606-2.817,3.668,3.668,0,0,1-.518-2.291c.335-1.436,2.141-1.542,4.453-1.538a12.47,12.47,0,0,0,1.913-.083A9.437,9.437,0,0,0,31.99,13.92C32.138,10.345,30.189,6.529,26.779,3.715ZM1.061,30.9c-.245-.462,1.128-3.157,4.622-6.661.6-.594,1.195-1.147,1.781-1.656a4.933,4.933,0,0,0,1.9,1.9c-.511.587-1.067,1.185-1.658,1.776C4.2,29.762,1.505,31.13,1.061,30.9ZM12.006,20.763A16.22,16.22,0,0,1,10.023,23.7a3.935,3.935,0,0,1-1.779-1.779,16.437,16.437,0,0,1,2.82-1.914,1.631,1.631,0,0,0,.308.394A1.649,1.649,0,0,0,12.006,20.763ZM11.8,19a5.067,5.067,0,0,1,3.423-4.49,8.287,8.287,0,0,1,2.217-.4,3.15,3.15,0,0,0-.68,1.328,5.371,5.371,0,0,0-.1,1.206,6.894,6.894,0,0,1-.028.711,2.965,2.965,0,0,1-3.013,2.631,4.7,4.7,0,0,1-.75-.052c-.456-.081-.664-.122-.817-.265A1,1,0,0,1,11.8,19Zm12.551,2.728A11.792,11.792,0,0,1,22.6,21.8c-2.069.005-4.887-.014-5.43,2.313a4.525,4.525,0,0,0,.582,2.93,3.813,3.813,0,0,1,.534,2.218,1.988,1.988,0,0,1-1.879,1.7,10.462,10.462,0,0,1-5-1.041,19.649,19.649,0,0,1-3.744-2.222c.256-.242.508-.485.752-.729a23.083,23.083,0,0,0,4.6-6c.147.015.331.028.539.028h.088a3.944,3.944,0,0,0,3.989-3.521,7.824,7.824,0,0,0,.034-.815,4.562,4.562,0,0,1,.074-.986c.156-.679.864-1.569,1.623-1.417a.5.5,0,1,0,.2-.98,9.484,9.484,0,0,0-4.647.3,6.048,6.048,0,0,0-4.1,5.38c0,.024,0,.058.005.084a24.058,24.058,0,0,0-5.83,4.5c-.248.248-.511.523-.78.81A13.459,13.459,0,0,1,1.308,12.917,15.6,15.6,0,0,1,9.355,2.6a15.824,15.824,0,0,1,16.786,1.89c3.171,2.617,4.984,6.128,4.849,9.394A8.408,8.408,0,0,1,24.349,21.727ZM20,3a3,3,0,1,0,3,3A3,3,0,0,0,20,3Zm0,5a2,2,0,1,1,2-2A2,2,0,0,1,20,8ZM11,4a3,3,0,1,0,3,3A3,3,0,0,0,11,4Zm0,5a2,2,0,1,1,2-2A2,2,0,0,1,11,9ZM6,11a3,3,0,1,0,3,3A3,3,0,0,0,6,11Zm0,5a2,2,0,1,1,2-2A2,2,0,0,1,6,16Z" fill="#000000" class="color000 svgShape"></path></svg>